<svg width="26" height="29" viewBox="0 0 26 29" fill="none" xmlns="http://www.w3.org/2000/svg">
<path d="M5.99844 6.20059C5.99844 3.10779 8.50564 0.600586 11.5984 0.600586C14.6912 0.600586 17.1984 3.10779 17.1984 6.20059H24.1984C24.9717 6.20059 25.5984 6.82739 25.5984 7.60059V13.4396C25.5984 13.894 25.3778 14.3202 25.0068 14.5827C24.6357 14.845 24.1604 14.911 23.732 14.7595C23.4417 14.657 23.1281 14.6006 22.7984 14.6006C21.252 14.6006 19.9984 15.8541 19.9984 17.4006C19.9984 18.947 21.252 20.2006 22.7984 20.2006C23.1281 20.2006 23.4417 20.1442 23.732 20.0417C24.1604 19.8902 24.6357 19.9561 25.0068 20.2185C25.3778 20.481 25.5984 20.9072 25.5984 21.3616V27.2006C25.5984 27.9738 24.9717 28.6006 24.1984 28.6006H1.79844C1.02525 28.6006 0.398438 27.9738 0.398438 27.2006V7.60059C0.398438 6.82739 1.02525 6.20059 1.79844 6.20059H5.99844ZM11.5984 3.40059C10.052 3.40059 8.79844 4.65419 8.79844 6.20059C8.79844 6.53034 8.85486 6.84391 8.95741 7.13404C9.10885 7.56253 9.04289 8.03788 8.78049 8.40893C8.51807 8.77999 8.09189 9.00059 7.63743 9.00059H3.19844V25.8006H22.7984V23.0006C19.7057 23.0006 17.1984 20.4933 17.1984 17.4006C17.1984 14.3078 19.7057 11.8006 22.7984 11.8006V9.00059H15.5595C15.105 9.00059 14.6789 8.77999 14.4164 8.40893C14.154 8.03788 14.0881 7.56253 14.2395 7.13404C14.342 6.84391 14.3984 6.53036 14.3984 6.20059C14.3984 4.65419 13.1449 3.40059 11.5984 3.40059Z" fill="white"/>
</svg>
